<?xml version="1.0" encoding="UTF-8"?>
<svg version="1.1" xmlns="http://www.w3.org/2000/svg" width="1536" height="1024">
<path d="M0 0 C506.88 0 1013.76 0 1536 0 C1536 337.92 1536 675.84 1536 1024 C1029.12 1024 522.24 1024 0 1024 C0 686.08 0 348.16 0 0 Z " fill="#010101" transform="translate(0,0)"/>
<path d="M0 0 C0.75385986 0.00894287 1.50771973 0.01788574 2.28442383 0.02709961 C13.7271899 0.26582557 25.3976439 3.515601 34.04296875 11.4765625 C34.56503906 12.06179688 35.08710937 12.64703125 35.625 13.25 C35.68558594 12.53972656 35.74617187 11.82945312 35.80859375 11.09765625 C35.93427734 9.71900391 35.93427734 9.71900391 36.0625 8.3125 C36.18431641 6.93771484 36.18431641 6.93771484 36.30859375 5.53515625 C36.625 3.25 36.625 3.25 37.625 2.25 C48.185 2.25 58.745 2.25 69.625 2.25 C69.625 38.88 69.625 75.51 69.625 113.25 C59.065 113.25 48.505 113.25 37.625 113.25 C37.295 109.29 36.965 105.33 36.625 101.25 C35.531875 102.301875 34.43875 103.35375 33.3125 104.4375 C24.28968497 112.28687336 11.63783903 116.5971324 -0.30688477 116.39477539 C-16.52682123 115.2593224 -29.37028775 107.79618868 -40.375 96.25 C-42.69790257 93.38776771 -44.58507714 90.46732969 -46.375 87.25 C-46.82359375 86.5178125 -47.2721875 85.785625 -47.734375 85.03125 C-54.99188087 72.22388671 -56.08750511 56.29845685 -52.375 42.25 C-48.17067257 28.14124738 -40.47073706 15.27319564 -27.3515625 7.84765625 C-18.44844914 3.16926212 -10.19449736 -0.13629313 0 0 Z " fill="#FCFBFC" transform="translate(950.375,369.75)"/>
<path d="M0 0 C1.93918489 1.66670818 3.74375731 3.37314876 5.515625 5.21484375 C6.08023438 5.77945312 6.64484375 6.3440625 7.2265625 6.92578125 C7.65195312 7.35117187 8.07734375 7.7765625 8.515625 8.21484375 C9.16917969 7.52648437 9.16917969 7.52648437 9.8359375 6.82421875 C18.58231859 -2.18720419 27.89588034 -6.9311098 40.640625 -7.22265625 C52.49497518 -6.83142357 63.6353335 -2.70284396 71.8828125 6.0625 C82.97237637 20.68056146 82.67887336 37.56618072 82.61328125 55.04296875 C82.61141102 56.52797396 82.60998998 58.01297979 82.60899353 59.49798584 C82.60521591 63.36449962 82.59542757 67.2309745 82.58428955 71.09747314 C82.57215073 75.75914201 82.5676505 80.42082405 82.56183624 85.08250427 C82.55221219 92.1266443 82.53302272 99.17069935 82.515625 106.21484375 C71.625625 106.21484375 60.735625 106.21484375 49.515625 106.21484375 C49.45955078 98.86525391 49.45955078 98.86525391 49.40234375 91.3671875 C49.3720511 88.25452279 49.34089489 85.14191436 49.30664062 82.02929688 C49.25240815 77.09386094 49.20129474 72.15853634 49.16918945 67.22290039 C49.14309109 63.24157806 49.10264322 59.26063168 49.05243874 55.27954292 C49.03581401 53.76423396 49.02427244 52.24886004 49.01801109 50.73347282 C49.00832158 48.60308733 48.98020744 46.47365414 48.94799805 44.34350586 C48.93689499 43.13327255 48.92579193 41.92303925 48.91435242 40.6761322 C48.37724145 36.01355842 46.85431454 32.32856408 44.328125 28.33984375 C41.2773595 26.44626517 38.03057916 26.11166506 34.515625 26.21484375 C31.00529602 27.54096803 29.80993603 28.7628661 27.765625 31.90234375 C24.67709553 40.08694684 25.30651959 49.14739741 25.19921875 57.77734375 C25.17861096 59.17839111 25.15761359 60.57943278 25.13624573 61.98046875 C25.08141948 65.64312091 25.03183866 69.30582545 24.98339844 72.96856689 C24.93289273 76.71607032 24.87740746 80.4634999 24.82226562 84.2109375 C24.71470264 91.54551516 24.61537359 98.88013903 24.515625 106.21484375 C13.955625 106.21484375 3.395625 106.21484375 -7.484375 106.21484375 C-7.49855469 101.25453125 -7.51273438 96.29421875 -7.52734375 91.18359375 C-7.54741507 88.02987765 -7.56894564 84.87630543 -7.59570312 81.72265625 C-7.63798032 76.72357603 -7.67502582 71.72486074 -7.67993164 66.72558594 C-7.68422905 62.6922331 -7.71280964 58.65969902 -7.75780678 54.62660217 C-7.77073602 53.09258301 -7.77510572 51.55846563 -7.77052879 50.0243988 C-7.64322323 39.22935335 -7.64322323 39.22935335 -12.02485657 29.59436035 C-13.74993577 27.96383939 -15.27239748 27.07523014 -17.484375 26.21484375 C-21.17996053 26.34682895 -23.63628677 26.6494516 -26.734375 28.71484375 C-32.36425706 36.75753241 -31.95499808 46.09952823 -31.99609375 55.53125 C-32.01296816 56.99813818 -32.03112205 58.46501215 -32.05049133 59.93186951 C-32.09769835 63.76384028 -32.127696 67.59575341 -32.15393066 71.42791748 C-32.18916626 76.04126359 -32.24609434 80.6543884 -32.29932404 85.26755524 C-32.37749392 92.24995535 -32.4283583 99.23207268 -32.484375 106.21484375 C-43.044375 106.21484375 -53.604375 106.21484375 -64.484375 106.21484375 C-64.55243186 96.38254716 -64.60735222 86.55040967 -64.63981152 76.71792984 C-64.65539845 72.15121893 -64.67650767 67.58467897 -64.71069336 63.01806641 C-64.74353763 58.60248916 -64.7612803 54.18707527 -64.76900673 49.77138519 C-64.77450562 48.09546084 -64.78524222 46.41954437 -64.80156517 44.74369049 C-64.93964692 29.96535849 -63.91006847 16.38631423 -53.41015625 4.95703125 C-39.13860164 -8.54241482 -16.4371471 -11.8109689 0 0 Z " fill="#FBFBFC" transform="translate(805.484375,376.78515625)"/>
<path d="M0 0 C1.671875 1.31640625 1.671875 1.31640625 4.046875 3.69140625 C4.046875 4.35140625 4.046875 5.01140625 4.046875 5.69140625 C4.706875 5.69140625 5.366875 5.69140625 6.046875 5.69140625 C6.046875 2.72140625 6.046875 -0.24859375 6.046875 -3.30859375 C14.626875 -3.30859375 23.206875 -3.30859375 32.046875 -3.30859375 C32.1150213 6.22839368 32.16990286 15.7652158 32.20231152 25.30239296 C32.2178767 29.7322873 32.23894477 34.16200446 32.27319336 38.59179688 C32.306117 42.87770673 32.32379652 47.16344764 32.33150673 51.44947433 C32.33699169 53.07350697 32.34769977 54.6975318 32.36406517 56.32149124 C32.50484191 70.88843552 31.95142824 86.7206485 21.703125 98.1875 C10.87667787 108.01811826 -0.84360095 111.01738606 -15.078125 111.12890625 C-16.09156982 111.13913818 -17.10501465 111.14937012 -18.14916992 111.15991211 C-26.94738354 111.05749904 -34.82472761 109.47762651 -42.328125 104.69140625 C-43.11960937 104.19640625 -43.91109375 103.70140625 -44.7265625 103.19140625 C-49.11969544 100.23182195 -49.11969544 100.23182195 -50.953125 98.69140625 C-50.953125 98.03140625 -50.953125 97.37140625 -50.953125 96.69140625 C-51.613125 96.69140625 -52.273125 96.69140625 -52.953125 96.69140625 C-51.4145342 92.88404596 -49.07477784 90.7527108 -46.015625 88.06640625 C-45.14035156 87.29039062 -44.26507812 86.514375 -43.36328125 85.71484375 C-40.953125 83.69140625 -40.953125 83.69140625 -37.953125 81.69140625 C-34.71897066 82.06102389 -32.33263973 83.52903245 -29.578125 85.19140625 C-25.95616132 87.23834663 -23.1655499 88.42812969 -18.953125 88.69140625 C-18.28796875 88.76488281 -17.6228125 88.83835937 -16.9375 88.9140625 C-10.34431538 89.36359781 -5.38661732 87.36901237 0.046875 83.69140625 C3.66502559 79.98710922 4.25444656 77.33003335 4.296875 72.31640625 C4.23316871 70.77380388 4.15644196 69.23143081 4.046875 67.69140625 C3.098125 68.45453125 2.149375 69.21765625 1.171875 70.00390625 C-7.34518912 75.9879513 -16.79643934 76.54971771 -26.953125 75.69140625 C-36.76525737 73.90738218 -44.64998775 68.08489027 -50.44921875 60.1328125 C-57.2212482 49.13925819 -58.52468866 36.62271748 -56.390625 24.00390625 C-53.87035132 14.68065608 -48.05107237 5.97267627 -39.953125 0.69140625 C-27.02303069 -6.27375004 -12.82879564 -8.59529308 0 0 Z " fill="#FAFAFA" transform="translate(1272.953125,521.30859375)"/>
<path d="M0 0 C1 1 1 1 1.11352539 4.14282227 C1.11336633 5.53402697 1.10767506 6.92523761 1.09765625 8.31640625 C1.0962413 9.04746078 1.09482635 9.77851532 1.09336853 10.53172302 C1.08775408 12.87535632 1.07519922 15.21889539 1.0625 17.5625 C1.05748686 19.14778508 1.05292363 20.73307166 1.04882812 22.31835938 C1.03777997 26.2122761 1.02050572 30.10612205 1 34 C-0.51001587 34.06368774 -0.51001587 34.06368774 -2.05053711 34.12866211 C-3.39700271 34.19847884 -4.74343678 34.2689053 -6.08984375 34.33984375 C-7.405896 34.40292725 -8.72194824 34.46601074 -10.07788086 34.53100586 C-17.76517964 35.45022783 -24.6101983 38.7154904 -29.5 44.8125 C-30.34940055 46.19861466 -31.1814107 47.59546923 -32 49 C-32.5444747 49.88760214 -32.5444747 49.88760214 -33.09994888 50.79313564 C-37.09911003 58.34160659 -36.57458864 66.32828529 -36.54589844 74.62719727 C-36.55464361 76.30339004 -36.56513267 77.97957449 -36.57722473 79.65574646 C-36.60498989 84.18406167 -36.60849152 88.7121032 -36.60750484 93.24049115 C-36.61064212 97.98110349 -36.63627727 102.72159404 -36.65948486 107.46214294 C-36.69998606 116.42916456 -36.72037174 125.39611356 -36.73345876 134.36321253 C-36.74934874 144.57610934 -36.78777279 154.78888294 -36.82805204 165.00170815 C-36.91037051 186.00110097 -36.96371366 207.00048153 -37 228 C-46.9 228 -56.8 228 -67 228 C-67 153.42 -67 78.84 -67 2 C-57.1 2 -47.2 2 -37 2 C-36.505 8.93 -36.505 8.93 -36 16 C-35.0409375 14.700625 -35.0409375 14.700625 -34.0625 13.375 C-25.60628603 3.2990042 -12.79236894 -0.50166153 0 0 Z " fill="#F9F9FA" transform="translate(1107,370)"/>
<path d="M0 0 C11.22 0 22.44 0 34 0 C34 13.2 34 26.4 34 40 C46.87 40 59.74 40 73 40 C73 50.23 73 60.46 73 71 C60.13 71 47.26 71 34 71 C33.86242418 92.57955742 33.86242418 92.57955742 42 112 C49.12193781 117.81573088 56.97272958 119.25626908 65.9375 119.625 C66.71673828 119.66367187 67.49597656 119.70234375 68.29882812 119.7421875 C70.19887379 119.83544127 72.09940278 119.91875962 74 120 C75.15927528 123.47782583 75.11313066 126.18803257 75.09765625 129.85546875 C75.0962413 130.51710526 75.09482635 131.17874176 75.09336853 131.86042786 C75.08777996 133.96949828 75.07522965 136.07846177 75.0625 138.1875 C75.05748352 139.61913909 75.05292087 141.05077985 75.04882812 142.48242188 C75.0378143 145.98831588 75.02055755 149.4941475 75 153 C47.62768028 153.83825714 47.62768028 153.83825714 36 149 C35.10667969 148.63777344 34.21335937 148.27554688 33.29296875 147.90234375 C18.29776667 141.1072829 9.6038022 129.57084758 3.2265625 114.75 C-0.02539434 104.80771156 -0.25997608 95.21084941 -0.125 84.8125 C-0.1149393 83.46550153 -0.10581897 82.11849569 -0.09765625 80.77148438 C-0.07430686 77.51424395 -0.03844443 74.25709724 0 71 C-3.96 71 -7.92 71 -12 71 C-12 60.77 -12 50.54 -12 40 C-8.04 40 -4.08 40 0 40 C0 26.8 0 13.6 0 0 Z " fill="#FAFAFB" transform="translate(1128,332)"/>
<path d="M0 0 C3.19835614 2.54550816 5.57580822 5.44204179 8.0859375 8.66015625 C2.15935413 14.08303362 -3.77563332 19.47659383 -9.9140625 24.66015625 C-13.7774196 22.83384198 -17.1772468 20.50729029 -20.6953125 18.09765625 C-25.9701514 14.68015499 -30.60811609 13.54721393 -36.9140625 13.66015625 C-39.8133008 14.3872964 -42.18343623 15.39597742 -44.9140625 16.66015625 C-45.2440625 18.97015625 -45.5740625 21.28015625 -45.9140625 23.66015625 C-40.2330177 27.64989764 -34.84138589 29.87116413 -28.1640625 31.66015625 C-11.38643723 36.44629337 1.60716379 41.44482586 10.9609375 56.72265625 C14.28395499 65.41821698 12.76935644 76.09599059 9.203125 84.43359375 C4.51517981 93.7767013 -4.78165445 98.67573402 -14.37109375 101.93359375 C-29.7236401 106.32003557 -46.47187204 104.63417477 -60.6015625 97.41015625 C-67.64507914 93.19964077 -73.94614677 88.2082557 -78.9140625 81.66015625 C-72.01441768 75.85791686 -65.08433249 70.12839245 -57.9140625 64.66015625 C-57.429375 65.03527344 -56.9446875 65.41039062 -56.4453125 65.796875 C-46.09417838 73.69956778 -39.28067126 77.52939584 -25.9140625 76.66015625 C-22.18017966 75.88663306 -22.18017966 75.88663306 -19.9140625 73.66015625 C-18.41245802 70.31567337 -18.41245802 70.31567337 -18.9140625 66.66015625 C-23.05878186 62.48374944 -26.55612059 60.80997181 -32.2890625 59.22265625 C-33.7055122 58.81100728 -35.1208513 58.39552091 -36.53515625 57.9765625 C-37.25687012 57.76402832 -37.97858398 57.55149414 -38.72216797 57.33251953 C-67.31719369 48.56100017 -67.31719369 48.56100017 -74.19921875 36.38671875 C-77.72067009 28.78846173 -79.22407244 21.50689568 -76.7890625 13.28515625 C-73.06902776 3.25130107 -67.50414882 -2.57565672 -57.9140625 -7.33984375 C-38.6401376 -15.8113478 -16.99181807 -11.65579099 0 0 Z " fill="#FBFBFB" transform="translate(718.9140625,381.33984375)"/>
<path d="M0 0 C7.84305035 7.27131397 11.39036303 15.78460004 12.77734375 26.25 C12.77734375 30.54 12.77734375 34.83 12.77734375 39.25 C-6.03265625 39.25 -24.84265625 39.25 -44.22265625 39.25 C-40.04133545 48.10993922 -40.04133545 48.10993922 -32.22265625 52.25 C-24.84383684 53.37070779 -18.35795342 52.67037073 -12.22265625 48.25 C-11.75988281 47.68925781 -11.29710937 47.12851562 -10.8203125 46.55078125 C-9.22265625 45.25 -9.22265625 45.25 -6.88671875 45.34765625 C-3.76343986 46.40554104 -1.34561881 47.86688017 1.40234375 49.6875 C2.34335937 50.30496094 3.284375 50.92242188 4.25390625 51.55859375 C5.08664062 52.11675781 5.919375 52.67492187 6.77734375 53.25 C8.26234375 54.24 8.26234375 54.24 9.77734375 55.25 C6.02240929 63.50002428 -1.01297733 67.98811864 -9.22265625 71.25 C-19.06140114 74.70751208 -33.18777421 75.362974 -43.03515625 71.5625 C-44.45575531 70.83832251 -45.85488171 70.06958985 -47.22265625 69.25 C-47.90972656 68.88777344 -48.59679687 68.52554688 -49.3046875 68.15234375 C-59.58151304 62.35566395 -65.6436704 54.0144912 -69.3203125 42.9453125 C-72.11439885 31.50286364 -71.10520643 21.55422778 -65.28125 11.34765625 C-58.6291 1.33787456 -50.86107593 -5.38778987 -39.22265625 -8.75 C-25.51767842 -11.44204922 -11.1220071 -8.75687027 0 0 Z " fill="#FAFAFA" transform="translate(775.22265625,525.75)"/>
<path d="M0 0 C7.36451327 5.95271817 12.41685041 12.28331803 17.04296875 20.51953125 C17.60000488 21.48665039 18.15704102 22.45376953 18.73095703 23.45019531 C19.86867057 25.4275032 21.00121342 27.40779574 22.12841797 29.39111328 C23.56708276 31.91984837 25.02041895 34.43897452 26.484375 36.953125 C30.49215031 43.8360273 34.4623565 50.74050081 38.43359375 57.64453125 C39.74082547 59.91539909 41.04811759 62.18623217 42.35546875 64.45703125 C42.99411865 65.56796143 43.63276855 66.6788916 44.29077148 67.82348633 C48.18954279 74.58951998 52.13323771 81.32319282 56.29345703 87.93261719 C57.95315131 90.62361733 58.73046875 91.97105751 58.73046875 95.20703125 C59.39046875 95.20703125 60.05046875 95.20703125 60.73046875 95.20703125 C60.95992187 94.54832031 61.189375 93.88960938 61.42578125 93.2109375 C63.1330808 89.2800592 65.32770675 85.76703613 67.60546875 82.14453125 C68.03988281 81.43748047 68.47429687 80.73042969 68.921875 80.00195312 C71.2061271 76.34920766 73.38353284 72.9925915 76.73046875 70.20703125 C79.62942725 69.71208712 81.04848408 69.82057327 83.60546875 71.26953125 C85.41935857 74.39345261 84.47883197 76.75743317 83.73046875 80.20703125 C81.98046875 83.390625 81.98046875 83.390625 79.73046875 86.64453125 C75.67536518 92.64380601 72.05491124 98.79870517 68.5625 105.14038086 C65.81219952 110.12530048 65.81219952 110.12530048 64.73046875 111.20703125 C63.25692527 111.30007143 61.77896284 111.3244939 60.30249023 111.32055664 C59.36159042 111.32048111 58.42069061 111.32040558 57.45127869 111.32032776 C56.42837234 111.31516647 55.405466 111.31000519 54.3515625 111.3046875 C53.30976334 111.30327255 52.26796417 111.3018576 51.19459534 111.30039978 C47.85235781 111.29478205 44.51018618 111.28222655 41.16796875 111.26953125 C38.90820409 111.26451853 36.64843838 111.25995523 34.38867188 111.25585938 C28.83591484 111.24480686 23.2831965 111.22805149 17.73046875 111.20703125 C16.33615371 108.41840118 16.47386781 106.28624257 16.73046875 103.20703125 C20.31469171 100.81754928 22.10279471 100.90469957 26.3671875 100.79296875 C27.66591797 100.75429688 28.96464844 100.715625 30.30273438 100.67578125 C31.67447448 100.64432608 33.04621936 100.61307874 34.41796875 100.58203125 C35.8014566 100.54383928 37.18492098 100.50478683 38.56835938 100.46484375 C41.95559325 100.37042608 45.34281944 100.28485007 48.73046875 100.20703125 C37.4421765 79.97923726 26.05502285 59.81077036 14.390625 39.796875 C12.59949173 36.720841 10.84044674 33.62928337 9.1015625 30.5234375 C2.14252547 18.19618877 -4.18734603 9.56775966 -18.01953125 4.95703125 C-29.20245061 2.52310174 -39.80107118 4.13382559 -49.45703125 10.20703125 C-54.95058486 14.35487715 -58.0240938 19.23719881 -61.26953125 25.20703125 C-61.68396484 25.95903809 -62.09839844 26.71104492 -62.52539062 27.48583984 C-65.04922648 32.06807921 -67.54796738 36.66340668 -70.03515625 41.265625 C-73.17291586 47.05454485 -76.39447814 52.79305912 -79.64453125 58.51953125 C-84.27053925 66.67409844 -88.87745143 74.83878156 -93.45703125 83.01953125 C-94.04709961 84.07342041 -94.63716797 85.12730957 -95.24511719 86.21313477 C-98.23864341 91.56391647 -101.222165 96.92002355 -104.19165039 102.28417969 C-108.56338612 110.18116527 -113.0078834 118.03310696 -117.50805664 125.85766602 C-120.39638744 130.89037064 -123.23864094 135.9451236 -126.0390625 141.02734375 C-126.67038086 142.16937256 -127.30169922 143.31140137 -127.95214844 144.48803711 C-129.18668863 146.72512014 -130.41539899 148.96543225 -131.63769531 151.20922852 C-132.4783252 152.72987915 -132.4783252 152.72987915 -133.3359375 154.28125 C-133.83037354 155.18447998 -134.32480957 156.08770996 -134.83422852 157.01831055 C-136.26953125 159.20703125 -136.26953125 159.20703125 -139.26953125 161.20703125 C-142.13675918 161.56543474 -143.64188794 161.61824583 -146.08203125 160.01953125 C-147.72283131 157.51515221 -147.58171675 156.18736214 -147.26953125 153.20703125 C-146.19003862 150.90111505 -145.0723045 148.81829494 -143.76953125 146.64453125 C-142.94388484 145.22142701 -142.11837529 143.79824337 -141.29296875 142.375 C-140.82084961 141.56981934 -140.34873047 140.76463867 -139.86230469 139.93505859 C-137.02120408 135.06895526 -134.23176938 130.17312628 -131.43670654 125.28048706 C-130.39205171 123.45269289 -129.34576898 121.62583767 -128.29931641 119.79907227 C-123.71340724 111.7853803 -119.22235069 103.72386158 -114.80053711 95.6184082 C-112.17007084 90.80727073 -109.44534373 86.07572351 -106.58203125 81.3984375 C-104.60495034 78.09741849 -102.79587007 74.70990581 -100.96875 71.32421875 C-98.58887154 66.95837274 -96.14202836 62.63106082 -93.69213867 58.30419922 C-89.38108954 50.6732813 -85.20269438 42.97166692 -81.0859375 35.234375 C-80.55033203 34.23212891 -80.01472656 33.22988281 -79.46289062 32.19726562 C-78.37489202 30.16068859 -77.29155955 28.12161195 -76.21289062 26.08007812 C-67.67206234 10.1570213 -59.07191079 0.313414 -42.26953125 -6.79296875 C-28.30192793 -10.65682086 -11.92806457 -7.79401358 0 0 Z " fill="#F8F8F8" transform="translate(418.26953125,292.79296875)"/>
<path d="M0 0 C9.24 0 18.48 0 28 0 C31.32915608 7.9899746 34.55204766 15.95581945 37.5625 24.0625 C38.12227539 25.56006836 38.12227539 25.56006836 38.69335938 27.08789062 C41.1651105 33.71218365 43.59378083 40.35164503 46 47 C48.25108829 41.93619457 50.13150489 36.84880347 51.84765625 31.58203125 C52.1050206 30.80236496 52.36238495 30.02269867 52.62754822 29.21940613 C53.44213952 26.75139406 54.25280727 24.28212316 55.0625 21.8125 C56.13323815 18.54701814 57.20797439 15.2828924 58.28515625 12.01953125 C58.52790787 11.27467972 58.77065948 10.52982819 59.02076721 9.7624054 C60.15199133 6.33629862 61.38028882 3.23942235 63 0 C71.91 0 80.82 0 90 0 C86.62757693 12.36555124 86.62757693 12.36555124 84.50390625 17.36328125 C83.79899048 19.04103638 83.79899048 19.04103638 83.07983398 20.75268555 C82.57911377 21.92742432 82.07839355 23.10216309 81.5625 24.3125 C80.47818075 26.88651847 79.39916597 29.46274918 78.3203125 32.0390625 C78.04470993 32.69563339 77.76910736 33.35220428 77.4851532 34.02867126 C74.80642837 40.42545892 72.23800448 46.86427993 69.68243408 53.31103516 C67.47138912 58.88058586 65.23469235 64.43990783 63 70 C62.51080078 71.22106445 62.02160156 72.44212891 61.51757812 73.70019531 C60.09006363 77.24433653 58.6420206 80.77936947 57.1875 84.3125 C56.76782959 85.36139404 56.34815918 86.41028809 55.91577148 87.4909668 C52.51712874 95.65475802 48.16357335 103.64249683 40.4375 108.4375 C39.73496094 108.88996094 39.03242187 109.34242188 38.30859375 109.80859375 C31.85661036 113.13829753 26.23926876 113.2503191 19.125 113.125 C17.66320312 113.11146484 17.66320312 113.11146484 16.171875 113.09765625 C13.78099272 113.07421623 11.39062739 113.04140442 9 113 C8.11900265 110.02181366 7.93294836 107.54707135 8.12109375 104.453125 C8.16943359 103.60878906 8.21777344 102.76445313 8.26757812 101.89453125 C8.32365234 101.02183594 8.37972656 100.14914062 8.4375 99.25 C8.48970703 98.36183594 8.54191406 97.47367188 8.59570312 96.55859375 C8.72501733 94.37200804 8.85996642 92.18592106 9 90 C9.845625 90.04640625 10.69125 90.0928125 11.5625 90.140625 C21.49392683 90.52681428 21.49392683 90.52681428 30 86 C32.1086908 83.0631435 33.16103444 80.30975577 32.70898438 76.63305664 C31.91893759 73.69894695 30.84152649 71.07978111 29.59375 68.30859375 C29.10173096 67.20918457 28.60971191 66.10977539 28.1027832 64.97705078 C27.30940552 63.22497314 27.30940552 63.22497314 26.5 61.4375 C25.95158953 60.21619739 25.40366125 58.99467815 24.85620117 57.77294922 C23.24398759 54.17900259 21.62286999 50.58914766 20 47 C15.2861572 36.57015883 10.58838888 26.13821515 6.0625 15.625 C5.49559448 14.31329834 5.49559448 14.31329834 4.91723633 12.97509766 C4.5642749 12.15058105 4.21131348 11.32606445 3.84765625 10.4765625 C3.53836182 9.75549316 3.22906738 9.03442383 2.91040039 8.29150391 C1.82889359 5.56932025 0.9262797 2.7788391 0 0 Z " fill="#FBFBFB" transform="translate(870,518)"/>
<path d="M0 0 C3.75 0.6875 3.75 0.6875 5.33203125 2.34765625 C6.92902853 4.7368316 8.34969856 7.17815981 9.75 9.6875 C10.74810911 11.31366211 11.74811317 12.93866264 12.75 14.5625 C14.72305623 17.89137747 16.61665243 21.25033294 18.453125 24.65625 C22.04377283 31.26087256 25.76459969 37.78899946 29.5 44.3125 C30.02806747 45.23607803 30.02806747 45.23607803 30.56680298 46.17831421 C35.02374283 53.97263281 39.52208163 61.7400631 44.1015625 69.46313477 C48.04854848 76.14334297 51.84225698 82.90866565 55.64208984 89.67333984 C59.11233906 95.83600626 62.65381975 101.95131816 66.24633789 108.04345703 C70.87248646 115.89279796 75.46084461 123.73594242 79.5625 131.875 C79.8819458 132.50398193 80.2013916 133.13296387 80.53051758 133.78100586 C85.20614915 143.31591207 84.99117685 154.32509289 82.1875 164.4375 C78.03148898 176.39693031 69.78430693 185.81135992 58.5 191.5625 C56.92856945 192.29686134 55.34512593 193.00613826 53.75 193.6875 C52.58210937 194.21730469 52.58210937 194.21730469 51.390625 194.7578125 C45.17060449 196.94770138 38.65776121 196.84984654 32.14282227 196.89282227 C31.20545731 196.90272186 30.26809235 196.91262146 29.30232239 196.92282104 C26.22370881 196.95424736 23.14507983 196.97911842 20.06640625 197.00390625 C17.92406325 197.02449209 15.78172416 197.04548898 13.63938904 197.06687927 C8.01542338 197.1219316 2.39142209 197.17141481 -3.23260498 197.21972656 C-8.97736766 197.27006491 -14.72207895 197.32568646 -20.46679688 197.38085938 C-31.72782062 197.48823484 -42.98888909 197.58972516 -54.25 197.6875 C-53.7653125 198.47922607 -53.280625 199.27095215 -52.78125 200.08666992 C-50.9832826 203.03537968 -49.19543973 205.98974901 -47.4140625 208.94848633 C-46.64197946 210.22627727 -45.86597098 211.50170507 -45.0859375 212.7746582 C-43.96347062 214.60797305 -42.85553282 216.44940561 -41.75 218.29296875 C-41.0796875 219.39793701 -40.409375 220.50290527 -39.71875 221.64135742 C-38.2423213 224.70342539 -37.76244095 226.35278701 -38.25 229.6875 C-39.9375 231.5625 -39.9375 231.5625 -42.25 232.6875 C-45.40617576 232.48356055 -46.79956455 232.18713996 -48.9440918 229.80834961 C-49.68912964 228.58643921 -49.68912964 228.58643921 -50.44921875 227.33984375 C-51.01431152 226.43177979 -51.5794043 225.52371582 -52.16162109 224.58813477 C-52.74766113 223.61030029 -53.33370117 222.63246582 -53.9375 221.625 C-55.17304068 219.61189544 -56.40871881 217.59887524 -57.64453125 215.5859375 C-58.25119629 214.5865918 -58.85786133 213.58724609 -59.48291016 212.55761719 C-61.07241535 209.97593398 -62.70878318 207.43881173 -64.38671875 204.9140625 C-64.85311768 204.20386963 -65.3195166 203.49367676 -65.80004883 202.76196289 C-66.65761724 201.45972938 -67.52534453 200.16410574 -68.4050293 198.87670898 C-71.14964482 194.62951992 -72.0275689 191.69789118 -71.25 186.6875 C-69.94832874 183.74366885 -68.26766177 181.12164981 -66.5 178.4375 C-66.01281494 177.67115234 -65.52562988 176.90480469 -65.02368164 176.11523438 C-63.9851016 174.48362827 -62.94006823 172.85611495 -61.88916016 171.23242188 C-60.20811193 168.62246556 -58.55934836 165.99443649 -56.91796875 163.359375 C-52.5125598 156.30283039 -52.5125598 156.30283039 -50.68359375 153.40625 C-50.05022095 152.39981445 -50.05022095 152.39981445 -49.40405273 151.37304688 C-48.25 149.6875 -48.25 149.6875 -46.25 147.6875 C-40.79545455 148.14204545 -40.79545455 148.14204545 -38.25 150.6875 C-37.72517589 155.442573 -38.65920915 158.09022613 -41.171875 162.09375 C-41.78546875 163.08503906 -42.3990625 164.07632813 -43.03125 165.09765625 C-44.00578125 166.62712891 -44.00578125 166.62712891 -45 168.1875 C-45.95132812 169.71697266 -45.95132812 169.71697266 -46.921875 171.27734375 C-49.95394299 176.13496934 -53.06938998 180.9258742 -56.25 185.6875 C-43.88848763 185.60297738 -31.52710263 185.50804773 -19.16577244 185.39997292 C-13.42539939 185.35010897 -7.68504386 185.30377815 -1.94458008 185.265625 C3.59925043 185.22864703 9.14293072 185.18225336 14.68663216 185.12943649 C16.79760149 185.11095891 18.90860295 185.09582669 21.0196209 185.08415604 C23.98515962 185.06717968 26.95035927 185.03811771 29.91577148 185.00634766 C30.7810849 185.00418747 31.64639832 185.00202728 32.53793335 184.99980164 C44.44218187 184.837763 54.27283153 181.49393358 63.18359375 173.41015625 C69.20534957 166.78772654 71.27159396 158.94996649 72.0625 150.25 C71.29149484 141.46054119 67.71818291 134.22525718 63.25 126.75 C62.71810059 125.84032471 62.18620117 124.93064941 61.63818359 123.9934082 C60.54253321 122.12046684 59.44276836 120.24992622 58.33886719 118.38183594 C56.43411212 115.15183026 54.56032743 111.90469608 52.68896484 108.65527344 C49.23754417 102.6656285 45.75558179 96.69381648 42.265625 90.7265625 C36.75231906 81.29828993 31.24934343 71.87031471 25.92993164 62.33105469 C23.37529044 57.76250565 20.73454756 53.25071338 18.0625 48.75 C11.91706994 38.38897734 6.08084191 27.8532349 0.22998047 17.32397461 C-1.03383937 15.07257401 -2.32953526 12.84506676 -3.640625 10.62109375 C-5.29575912 7.60408956 -5.82830021 6.06091791 -5.25 2.6875 C-3.25 0.6875 -3.25 0.6875 0 0 Z " fill="#F7F7F7" transform="translate(516.25,447.3125)"/>
<path d="M0 0 C7.54240342 4.78838823 11.49341474 11.97597474 13.57810974 20.54336548 C14.42131839 25.45330459 14.24117377 30.40784441 14.1953125 35.375 C14.1924826 36.5400708 14.18965271 37.7051416 14.18673706 38.90551758 C14.17559807 42.60378562 14.15050479 46.30180592 14.125 50 C14.1149621 52.51692357 14.10583766 55.03385096 14.09765625 57.55078125 C14.07738628 63.70069163 14.0382247 69.85007052 14 76 C5.42 76 -3.16 76 -12 76 C-12.03738281 72.59300781 -12.07476563 69.18601562 -12.11328125 65.67578125 C-12.15950453 62.37273776 -12.21073539 59.06980722 -12.26245117 55.7668457 C-12.29568634 53.47297033 -12.32372264 51.17901346 -12.34643555 48.88500977 C-12.38000674 45.58574727 -12.43232535 42.2872307 -12.48828125 38.98828125 C-12.49467117 37.96414627 -12.5010611 36.94001129 -12.50764465 35.88484192 C-12.61410429 30.71831307 -12.77122294 27.26297373 -16 23 C-16 22.34 -16 21.68 -16 21 C-22.01216802 18.99594399 -27.63303465 17.62260508 -33.75 20.125 C-37.63059121 23.35882601 -40.04648126 27.04838127 -41 32 C-41.11026857 33.52587285 -41.17524672 35.0554046 -41.20532227 36.58496094 C-41.22526749 37.48559265 -41.24521271 38.38622437 -41.26576233 39.31414795 C-41.29083107 40.75966034 -41.29083107 40.75966034 -41.31640625 42.234375 C-41.33718735 43.22753723 -41.35796844 44.22069946 -41.37937927 45.24395752 C-41.44469749 48.41256882 -41.50367739 51.58126211 -41.5625 54.75 C-41.60570207 56.89974802 -41.64931691 59.04948778 -41.69335938 61.19921875 C-41.8011365 66.46606306 -41.90034204 71.73297075 -42 77 C-50.58 77 -59.16 77 -68 77 C-68 50.6 -68 24.2 -68 -3 C-59.42 -3 -50.84 -3 -42 -3 C-41.67 -0.36 -41.34 2.28 -41 5 C-40.030625 4.0925 -39.06125 3.185 -38.0625 2.25 C-26.39635692 -7.57657161 -13.11600651 -7.28025031 0 0 Z " fill="#FBFAFB" transform="translate(1193,521)"/>
<path d="M0 0 C1.01107315 -0.01591187 2.0221463 -0.03182373 3.06385803 -0.04821777 C4.14936447 -0.04841919 5.23487091 -0.04862061 6.35327148 -0.04882812 C7.47249496 -0.05644165 8.59171844 -0.06405518 9.74485779 -0.07189941 C12.10934213 -0.08269949 14.47387418 -0.08555391 16.83837891 -0.08105469 C20.46458868 -0.08008075 24.08869451 -0.12174028 27.71459961 -0.16601562 C30.01081914 -0.17122122 32.30704605 -0.17391084 34.60327148 -0.17382812 C35.69080215 -0.19022339 36.77833282 -0.20661865 37.89881897 -0.22351074 C40.65673726 -0.19804884 43.20756126 -0.12006442 45.91186523 0.41992188 C47.92480469 2.53173828 47.92480469 2.53173828 48.91186523 5.41992188 C49.41282715 6.47937012 49.91378906 7.53881836 50.42993164 8.63037109 C51.83853625 11.8276386 53.24560905 15.02538238 54.63745117 18.22998047 C55.53276072 20.28549843 56.44079752 22.33508013 57.34936523 24.38476562 C57.92567898 25.70603464 58.50122528 27.02763871 59.07592773 28.34960938 C59.59622559 29.53796387 60.11652344 30.72631836 60.65258789 31.95068359 C61.94505898 35.51136879 62.67703112 38.63996238 62.91186523 42.41992188 C60.91186523 44.41992188 60.91186523 44.41992188 57.53686523 44.91992188 C53.91186523 44.41992188 53.91186523 44.41992188 51.95092773 41.93164062 C49.55623923 38.01548416 47.59849083 33.88899421 45.66186523 29.73242188 C45.29834961 28.97380859 44.93483398 28.21519531 44.56030273 27.43359375 C44.21741211 26.70333984 43.87452148 25.97308594 43.52124023 25.22070312 C43.21154297 24.56239502 42.9018457 23.90408691 42.58276367 23.22583008 C41.91186523 21.41992188 41.91186523 21.41992188 41.91186523 18.41992188 C41.25186523 18.41992188 40.59186523 18.41992188 39.91186523 18.41992188 C39.67081055 19.25652344 39.42975586 20.093125 39.18139648 20.95507812 C37.74078039 24.8868519 35.76977161 28.30107794 33.59936523 31.85742188 C32.69520819 33.36675377 31.79296671 34.87723433 30.89233398 36.38867188 C30.41070801 37.19691406 29.92908203 38.00515625 29.43286133 38.83789062 C24.45646364 47.28578499 19.71023307 55.87015736 14.91186523 64.41992188 C14.43120605 65.27392578 13.95054687 66.12792969 13.45532227 67.0078125 C0.07980001 88.13820819 0.07980001 88.13820819 -0.46313477 111.91992188 C2.80046715 121.75621337 7.82771932 127.45918828 16.91186523 132.41992188 C22.91835055 135.24768291 29.14131889 135.54335759 35.70051575 135.55795288 C36.34620331 135.56077416 36.99189087 135.56359544 37.65714473 135.56650221 C39.80041369 135.57477297 41.94363051 135.57617987 44.08691406 135.57763672 C45.63148135 135.5823101 47.17604728 135.58745452 48.72061157 135.59303284 C52.03594138 135.60427254 55.35126242 135.61272611 58.666605 135.61915207 C63.90591884 135.62986132 69.14516882 135.65011006 74.38444519 135.67227173 C89.27889102 135.73411036 104.17333124 135.78830764 119.06787109 135.82128906 C127.30204583 135.83960179 135.5361118 135.86848566 143.77020663 135.90929377 C148.12636622 135.93040158 152.48238863 135.94582654 156.83860207 135.94810104 C160.92875168 135.95023959 165.01861453 135.96602672 169.10867691 135.99249077 C170.61234267 135.99971277 172.11604307 136.00177078 173.61972237 135.99838829 C175.66587925 135.99451927 177.71204534 136.01064567 179.75813293 136.02792358 C181.47838794 136.0328888 181.47838794 136.0328888 183.23339558 136.03795433 C184.11729056 136.16400362 185.00118555 136.29005291 185.91186523 136.41992188 C188.06689054 139.65245984 188.38042658 140.67143111 187.91186523 144.41992188 C186.7898941 146.05236244 186.7898941 146.05236244 184.91186523 147.41992188 C182.07466888 147.7974453 182.07466888 147.7974453 178.55090332 147.8008728 C177.90273289 147.80555277 177.25456246 147.81023275 176.58675051 147.81505454 C174.41040994 147.82703942 172.23469507 147.81753386 170.05834961 147.80810547 C168.49941642 147.81216996 166.94048611 147.81751115 165.38156128 147.82403564 C161.14139463 147.83773877 156.90144645 147.83239592 152.66127586 147.82289839 C148.2194497 147.81530649 143.77764233 147.8223471 139.33581543 147.82705688 C131.86731614 147.83252036 124.39890572 147.82531209 116.93041992 147.81103516 C108.31508257 147.79475525 99.69995873 147.79996072 91.08462667 147.81651437 C83.67976614 147.83016958 76.27496957 147.83202781 68.8701005 147.82419837 C64.4515474 147.8195378 60.03309427 147.81885129 55.61454773 147.82880783 C51.45139829 147.83753231 47.28852088 147.83135646 43.12540054 147.81412506 C41.60454381 147.81018722 40.08366384 147.81124741 38.56281662 147.81791306 C23.56818781 147.87752485 10.86504014 145.37077462 -0.67016602 135.12695312 C-6.04089451 129.52465094 -9.41509811 123.67684065 -12.08813477 116.41992188 C-12.45293945 115.45699219 -12.81774414 114.4940625 -13.19360352 113.50195312 C-16.76993454 101.1800091 -13.21834286 89.1075966 -7.34985352 78.22851562 C-4.5710832 73.22312805 -1.69605714 68.27618788 1.20239258 63.33935547 C3.74794897 58.99205994 6.23344767 54.6111613 8.72436523 50.23242188 C9.69386407 48.53679293 10.66393535 46.84149118 11.63452148 45.14648438 C15.27967458 38.77865319 18.91950318 32.4077832 22.55941772 26.03695679 C24.31738844 22.96010657 26.07556997 19.88337682 27.83374023 16.80664062 C28.42767578 15.76725342 29.02161133 14.72786621 29.63354492 13.65698242 C30.26631348 12.54963745 30.26631348 12.54963745 30.91186523 11.41992188 C29.77120605 11.43563232 28.63054687 11.45134277 27.45532227 11.4675293 C23.23241204 11.52173711 19.00953268 11.5562384 14.78637695 11.5847168 C12.9568973 11.59982438 11.12745399 11.62031155 9.2980957 11.64624023 C6.67186531 11.68253773 4.04611274 11.69962803 1.41967773 11.71289062 C0.59879669 11.72837448 -0.22208435 11.74385834 -1.06784058 11.7598114 C-3.37280273 11.76049805 -3.37280273 11.76049805 -7.08813477 11.41992188 C-9.2357566 8.19848912 -9.64920276 7.16037518 -9.08813477 3.41992188 C-6.13387026 0.59631248 -4.02950166 0.03820061 0 0 Z " fill="#F5F5F5" transform="translate(206.088134765625,496.580078125)"/>
<path d="M0 0 C2.62132962 2.0660989 4.84032532 3.88003707 6.91796875 6.51171875 C6.8671875 8.40625 6.8671875 8.40625 5.91796875 10.51171875 C3.5546875 12.546875 3.5546875 12.546875 0.60546875 14.57421875 C-0.36003906 15.24582031 -1.32554687 15.91742187 -2.3203125 16.609375 C-3.23167969 17.23714844 -4.14304687 17.86492188 -5.08203125 18.51171875 C-5.79746094 19.10855469 -6.51289062 19.70539062 -7.25 20.3203125 C-7.85457031 20.71347656 -8.45914063 21.10664062 -9.08203125 21.51171875 C-10.07203125 21.18171875 -11.06203125 20.85171875 -12.08203125 20.51171875 C-12.08203125 19.85171875 -12.08203125 19.19171875 -12.08203125 18.51171875 C-13.74187923 17.82825193 -15.4103993 17.1658356 -17.08203125 16.51171875 C-18.01015625 16.11984375 -18.93828125 15.72796875 -19.89453125 15.32421875 C-24.89412409 14.04981273 -29.00425652 14.69027293 -33.76953125 16.57421875 C-38.38303332 20.43958535 -41.15042472 25.09272089 -42.01953125 31.07421875 C-42.34538985 36.82117958 -41.12300726 40.96512582 -37.89453125 45.76171875 C-34.24554663 49.32961482 -31.06308273 51.38685796 -25.84375 51.60546875 C-19.60145342 51.18581856 -15.52879661 48.95848411 -11.08203125 44.51171875 C-6.62949505 45.07304883 -3.4477348 47.78205981 0.10546875 50.32421875 C1.06743164 50.98260742 1.06743164 50.98260742 2.04882812 51.65429688 C6.75415421 54.99820865 6.75415421 54.99820865 7.60668945 57.6706543 C7.70941162 58.27820557 7.81213379 58.88575684 7.91796875 59.51171875 C-4.63055608 71.54595978 -14.9672347 75.17728094 -32.24609375 74.8203125 C-43.85279728 74.28506268 -52.15198114 67.90642121 -59.89453125 59.63671875 C-63.2579987 55.61145794 -65.30549553 51.42174211 -67.08203125 46.51171875 C-67.49453125 45.37734375 -67.90703125 44.24296875 -68.33203125 43.07421875 C-70.8109102 31.29954376 -68.42535081 19.65779365 -62.08203125 9.51171875 C-54.82623094 -0.69587304 -45.4309955 -5.61856221 -33.2734375 -8.015625 C-20.88128315 -9.85093795 -10.23258 -7.39951595 0 0 Z " fill="#FAFAFA" transform="translate(862.08203125,524.48828125)"/>
<path d="M0 0 C2.21675223 1.8312301 4.26361045 3.61331742 6.15625 5.78125 C6.15625 6.77125 6.15625 7.76125 6.15625 8.78125 C4.27114678 10.41737732 2.4372022 11.85013717 0.40625 13.28125 C-0.66109375 14.0546875 -1.7284375 14.828125 -2.828125 15.625 C-3.82328125 16.3365625 -4.8184375 17.048125 -5.84375 17.78125 C-7.18022138 18.7770522 -8.51507496 19.7750689 -9.84375 20.78125 C-12.01248412 19.77433773 -13.84555164 18.77980869 -15.71875 17.28125 C-20.55573759 13.86690582 -24.95585222 13.41574628 -30.6640625 14.2421875 C-35.15658393 15.35324119 -37.98012733 17.59004632 -40.65625 21.28125 C-43.43615639 27.1336845 -43.93572856 33.76805492 -42.23046875 40.03515625 C-40.22562291 44.6895781 -37.49438446 47.50590393 -33.05078125 49.9296875 C-29.20410715 51.41389096 -25.87058243 51.68078674 -21.84375 50.78125 C-19.61694575 49.70923097 -17.6749799 48.50930163 -15.66796875 47.0703125 C-13.80021048 45.75048331 -11.90870781 44.75674883 -9.84375 43.78125 C-8.86792969 44.47992187 -7.89210938 45.17859375 -6.88671875 45.8984375 C-5.60158049 46.81773348 -4.31642325 47.73700293 -3.03125 48.65625 C-2.38865234 49.11644531 -1.74605469 49.57664062 -1.08398438 50.05078125 C-0.46201172 50.49550781 0.15996094 50.94023438 0.80078125 51.3984375 C1.65700073 52.01114502 1.65700073 52.01114502 2.53051758 52.63623047 C4.05491439 53.70987832 5.60485985 54.7469899 7.15625 55.78125 C5.75112777 61.08948954 2.53853446 63.78443004 -1.84375 66.78125 C-14.28946243 73.69553468 -26.43044235 76.32696905 -40.55078125 72.875 C-53.45273874 67.70759212 -62.41628155 59.00385898 -67.8984375 46.296875 C-71.51878121 36.66257191 -71.08090993 25.15709324 -66.84375 15.78125 C-60.21589119 3.15675702 -51.45266284 -3.85563051 -38.09375 -8.53125 C-23.95528838 -11.46726118 -11.49962866 -8.43306102 0 0 Z " fill="#FAFAFB" transform="translate(1026.84375,525.21875)"/>
<path d="M0 0 C0 8.25 0 16.5 0 25 C-2.475 25.0825 -4.95 25.165 -7.5 25.25 C-15.23210058 25.65482202 -20.77355099 26.60373788 -26.375 32.5 C-28.74699651 36.1492254 -30.23734608 38.81668816 -30.31884766 43.21777344 C-30.33871735 44.03832214 -30.35858704 44.85887085 -30.37905884 45.70428467 C-30.39638565 47.01855438 -30.39638565 47.01855438 -30.4140625 48.359375 C-30.43342865 49.26375305 -30.4527948 50.1681311 -30.4727478 51.09991455 C-30.53243831 53.98318099 -30.57888686 56.86648758 -30.625 59.75 C-30.66318947 61.70704848 -30.70224177 63.66408033 -30.7421875 65.62109375 C-30.83975251 70.41397504 -30.91940441 75.20668312 -31 80 C-39.58 80 -48.16 80 -57 80 C-57 53.93 -57 27.86 -57 1 C-48.42 1 -39.84 1 -31 1 C-30.67 4.63 -30.34 8.26 -30 12 C-28.865625 10.7625 -27.73125 9.525 -26.5625 8.25 C-18.31275837 0.11563938 -11.38273362 -0.47927299 0 0 Z " fill="#FBFBFB" transform="translate(701,517)"/>
<path d="M0 0 C7.01695305 3.71715914 11.62295338 8.23132625 15.0625 15.375 C17.3080809 22.79916543 16.79279782 29.65788171 13.5625 36.6875 C10.61804492 42.04863048 7.3845503 45.41069625 2.0625 48.375 C1.14210938 48.91125 0.22171875 49.4475 -0.7265625 50 C-7.03725666 52.70238971 -14.838417 52.44765723 -21.4453125 50.71875 C-28.4087002 47.55109128 -34.10834527 41.5581082 -37.21484375 34.60546875 C-39.74547458 26.79471089 -39.41951385 19.77427943 -35.9375 12.375 C-29.05481206 -0.62563277 -13.58260238 -5.61071355 0 0 Z " fill="#040404" transform="translate(969.9375,402.625)"/>
<path d="M0 0 C8.58 0 17.16 0 26 0 C26 26.4 26 52.8 26 80 C17.42 80 8.84 80 0 80 C0 53.6 0 27.2 0 0 Z " fill="#FAFAFA" transform="translate(1084,518)"/>
<path d="M0 0 C4.31633181 3.18586395 7.91120739 6.79612218 9.625 11.9375 C10.4010977 18.17954292 9.98072754 23.01497583 6.22265625 28.17578125 C2.53934372 32.23733125 -0.85076664 34.56267954 -6.34765625 35.37890625 C-12.48179782 35.61454242 -16.69813071 35.26360409 -21.375 30.9375 C-25.82820355 26.36059635 -26.95586996 21.7666278 -27.875 15.5625 C-26.99335323 9.17056094 -23.27701805 4.79423191 -18.75 0.375 C-12.67032123 -2.21449281 -6.25790072 -1.97007986 0 0 Z " fill="#040404" transform="translate(1269.375,540.0625)"/>
<path d="M0 0 C3.33120098 3.08136091 5.2362418 5.67939714 5.96875 10.21484375 C6.0635836 19.42555686 6.0635836 19.42555686 3.4375 22.875 C-0.89284465 26.46826471 -4.93135802 28.41685992 -10.5625 28.75 C-16.2393309 28.11924101 -19.04825338 25.9211922 -22.8125 21.75 C-25.7112304 17.56294497 -26.30409442 13.29240292 -25.5 8.3125 C-23.71211001 4.42075671 -21.29882346 1.90210779 -17.875 -0.625 C-11.70433421 -2.56761701 -5.88196151 -2.83594573 0 0 Z " fill="#F9F9FA" transform="translate(1106.5,480.6875)"/>
<path d="M0 0 C2.93102294 2.02380155 4.74817384 3.7807039 6.625 6.8125 C6.625 8.4625 6.625 10.1125 6.625 11.8125 C-3.935 11.8125 -14.495 11.8125 -25.375 11.8125 C-24.29270875 6.40104373 -23.20203664 4.63953664 -19.375 0.8125 C-13.42596166 -2.23119404 -6.22017245 -2.18857919 0 0 Z " fill="#080808" transform="translate(756.375,537.1875)"/>
</svg>
