<svg xmlns="http://www.w3.org/2000/svg" viewBox="0 0 32 32" width="24" height="24" fill="currentColor">
  <path d="M16 3C9 3 3.3 8.7 3.3 15.7c0 2.5.7 4.8 1.9 6.8L3 29l6.7-2.1c1.9 1 4.1 1.6 6.3 1.6 7 0 12.7-5.7 12.7-12.7C28.7 8.7 23 3 16 3zm0 23.2c-2 0-3.9-.5-5.6-1.5l-.4-.2-4 1.2 1.2-3.9-.3-.4c-1.1-1.8-1.7-3.8-1.7-5.9 0-6.1 5-11.1 11.1-11.1s11.1 5 11.1 11.1S22.1 26.2 16 26.2zm6.1-8.3c-.3-.2-2-1-2.3-1.1-.3-.1-.5-.2-.8.2-.2.3-.9 1.1-1.1 1.3-.2.2-.4.3-.7.1-.3-.2-1.4-.5-2.7-1.7-1-.9-1.7-2-1.9-2.3-.2-.3 0-.5.1-.7.2-.2.4-.4.6-.6.2-.2.2-.4.3-.6.1-.2.1-.5 0-.7-.1-.2-.8-1.9-1.1-2.6-.3-.7-.6-.6-.8-.6h-.7c-.2 0-.6.1-.9.4-.3.3-1.2 1.2-1.2 2.8s1.2 3.2 1.4 3.5c.2.3 2.4 3.7 5.9 5.1.8.3 1.5.6 2 .7.8.3 1.6.2 2.2.1.7-.1 2-.8 2.3-1.6.3-.8.3-1.4.2-1.6-.1-.1-.3-.2-.6-.3z"/>
</svg>
